<?xml version="1.0" encoding="UTF-8" standalone="no"?><svg xmlns="http://www.w3.org/2000/svg" xmlns:xlink="http://www.w3.org/1999/xlink" contentScriptType="application/ecmascript" contentStyleType="text/css" height="457px" preserveAspectRatio="none" style="width:1206px;height:457px;" version="1.1" viewBox="0 0 1206 457" width="1206px" zoomAndPan="magnify"><defs/><g><!--entity _actions_news--><rect fill="#F8F8F8" height="34.4844" rx="2" ry="2" style="stroke: #000000; stroke-width: 0.5;" width="98" x="849.014" y="330"/><text fill="#000000" font-family="Tahoma, sans-serif" font-size="12" lengthAdjust="spacingAndGlyphs" textLength="78" x="859.014" y="352.0059">actions/news</text><ellipse cx="1021.7796" cy="433.242" fill="#F8F8F8" rx="39.7696" ry="13.242" style="stroke: #383838; stroke-width: 0.5;"/><text fill="#000000" font-family="Tahoma, sans-serif" font-size="12" lengthAdjust="spacingAndGlyphs" textLength="52" x="995.7796" y="436.9842">api/news</text><ellipse cx="94.8636" cy="236.242" fill="#F8F8F8" rx="17.8492" ry="13.242" style="stroke: #383838; stroke-width: 0.5;"/><text fill="#000000" font-family="Tahoma, sans-serif" font-size="12" lengthAdjust="spacingAndGlyphs" textLength="21" x="84.3636" y="239.9842">App</text><ellipse cx="95.1982" cy="148.242" fill="#F8F8F8" rx="41.1838" ry="13.242" style="stroke: #383838; stroke-width: 0.5;"/><text fill="#000000" font-family="Tahoma, sans-serif" font-size="12" font-weight="bold" lengthAdjust="spacingAndGlyphs" textLength="54" x="68.1982" y="151.9842">App.test</text><ellipse cx="490.6917" cy="63.242" fill="#F8F8F8" rx="20.6777" ry="13.242" style="stroke: #383838; stroke-width: 0.5;"/><text fill="#000000" font-family="Tahoma, sans-serif" font-size="12" lengthAdjust="spacingAndGlyphs" textLength="25" x="478.1917" y="66.9842">auth</text><ellipse cx="258.1645" cy="64.1301" fill="#F8F8F8" rx="61.1505" ry="14.6301" style="stroke: #383838; stroke-width: 0.5;"/><text fill="#000000" font-family="Tahoma, sans-serif" font-size="12" font-weight="bold" lengthAdjust="spacingAndGlyphs" textLength="91" x="212.6645" y="67.8723">Authenticated</text><ellipse cx="257.8044" cy="260.242" fill="#F8F8F8" rx="51.7904" ry="13.242" style="stroke: #383838; stroke-width: 0.5;"/><text fill="#000000" font-family="Tahoma, sans-serif" font-size="12" lengthAdjust="spacingAndGlyphs" textLength="69" x="223.3044" y="263.9842">Home/index</text><ellipse cx="392.9343" cy="22.242" fill="#F8F8F8" rx="24.9203" ry="13.242" style="stroke: #383838; stroke-width: 0.5;"/><text fill="#000000" font-family="Tahoma, sans-serif" font-size="12" lengthAdjust="spacingAndGlyphs" textLength="31" x="377.4343" y="25.9842">Login</text><ellipse cx="258.2272" cy="304.242" fill="#F8F8F8" rx="24.2132" ry="13.242" style="stroke: #383838; stroke-width: 0.5;"/><text fill="#000000" font-family="Tahoma, sans-serif" font-size="12" lengthAdjust="spacingAndGlyphs" textLength="30" x="243.2272" y="307.9842">Menu</text><!--entity _models_news--><rect fill="#F8F8F8" height="34.4844" rx="2" ry="2" style="stroke: #000000; stroke-width: 0.5;" width="98" x="1097.01" y="375"/><text fill="#000000" font-family="Tahoma, sans-serif" font-size="12" lengthAdjust="spacingAndGlyphs" textLength="78" x="1107.01" y="397.0059">models/news</text><ellipse cx="257.9343" cy="392.242" fill="#F8F8F8" rx="24.9203" ry="13.242" style="stroke: #383838; stroke-width: 0.5;"/><text fill="#000000" font-family="Tahoma, sans-serif" font-size="12" lengthAdjust="spacingAndGlyphs" textLength="31" x="242.4343" y="395.9842">News</text><ellipse cx="755.0262" cy="392.242" fill="#F8F8F8" rx="44.0122" ry="13.242" style="stroke: #383838; stroke-width: 0.5;"/><text fill="#000000" font-family="Tahoma, sans-serif" font-size="12" lengthAdjust="spacingAndGlyphs" textLength="58" x="726.0262" y="395.9842">NewsItem</text><!--entity _PageNotFound--><rect fill="#F8F8F8" height="34.4844" rx="2" ry="2" style="stroke: #000000; stroke-width: 0.5;" width="103" x="206.514" y="195"/><text fill="#000000" font-family="Tahoma, sans-serif" font-size="12" lengthAdjust="spacingAndGlyphs" textLength="83" x="216.514" y="217.0059">PageNotFound</text><ellipse cx="258.2186" cy="164.242" fill="#F8F8F8" rx="53.2046" ry="13.242" style="stroke: #383838; stroke-width: 0.5;"/><text fill="#000000" font-family="Tahoma, sans-serif" font-size="12" lengthAdjust="spacingAndGlyphs" textLength="71" x="222.7186" y="167.9842">PrivateRoute</text><ellipse cx="257.9698" cy="348.242" fill="#F8F8F8" rx="28.4558" ry="13.242" style="stroke: #383838; stroke-width: 0.5;"/><text fill="#000000" font-family="Tahoma, sans-serif" font-size="12" lengthAdjust="spacingAndGlyphs" textLength="36" x="239.9698" y="351.9842">Profile</text><ellipse cx="94.7912" cy="100.7554" fill="#F8F8F8" rx="66.7768" ry="15.7554" style="stroke: #383838; stroke-width: 0.5;"/><text fill="#000000" font-family="Tahoma, sans-serif" font-size="12" font-weight="bold" lengthAdjust="spacingAndGlyphs" textLength="105" x="42.2912" y="104.4976">react-app-env.d</text><ellipse cx="754.8484" cy="309.1669" fill="#F8F8F8" rx="58.8344" ry="14.1669" style="stroke: #383838; stroke-width: 0.5;"/><text fill="#000000" font-family="Tahoma, sans-serif" font-size="12" lengthAdjust="spacingAndGlyphs" textLength="85" x="712.3484" y="312.9091">reducers/news</text><ellipse cx="604.8674" cy="269.0707" fill="#F8F8F8" rx="55.8534" ry="13.5707" style="stroke: #383838; stroke-width: 0.5;"/><text fill="#000000" font-family="Tahoma, sans-serif" font-size="12" lengthAdjust="spacingAndGlyphs" textLength="77" x="566.3674" y="272.8129">rootReducers</text><ellipse cx="94.8419" cy="280.8655" fill="#F8F8F8" rx="57.3275" ry="13.8655" style="stroke: #383838; stroke-width: 0.5;"/><text fill="#000000" font-family="Tahoma, sans-serif" font-size="12" lengthAdjust="spacingAndGlyphs" textLength="81" x="54.3419" y="284.6077">serviceWorker</text><ellipse cx="94.855" cy="192.242" fill="#F8F8F8" rx="46.8406" ry="13.242" style="stroke: #383838; stroke-width: 0.5;"/><text fill="#000000" font-family="Tahoma, sans-serif" font-size="12" font-weight="bold" lengthAdjust="spacingAndGlyphs" textLength="62" x="63.855" y="195.9842">src/index</text><ellipse cx="490.5201" cy="289.242" fill="#F8F8F8" rx="23.5061" ry="13.242" style="stroke: #383838; stroke-width: 0.5;"/><text fill="#000000" font-family="Tahoma, sans-serif" font-size="12" lengthAdjust="spacingAndGlyphs" textLength="29" x="476.0201" y="292.9842">state</text><!--entity _SVGHome--><rect fill="#F8F8F8" height="34.4844" rx="2" ry="2" style="stroke: #000000; stroke-width: 0.5;" width="78" x="354.014" y="195"/><text fill="#000000" font-family="Tahoma, sans-serif" font-size="12" lengthAdjust="spacingAndGlyphs" textLength="58" x="364.014" y="217.0059">SVGHome</text><!--entity _user--><rect fill="#F8F8F8" height="34.4844" rx="2" ry="2" style="stroke: #000000; stroke-width: 0.5;" width="45" x="582.514" y="26"/><text fill="#000000" font-family="Tahoma, sans-serif" font-size="12" lengthAdjust="spacingAndGlyphs" textLength="25" x="592.514" y="48.0059">user</text><!--link _actions_news to _models_news--><path d="M947.03,355.7833 C988.548,363.3781 1048.5,374.3446 1091.54,382.2177 " fill="none" id="_actions_news-_models_news" style="stroke: #000000; stroke-width: 0.55;"/><polygon fill="#000000" points="1096.7,383.1621,1088.567,377.6074,1091.7817,382.2621,1087.127,385.4768,1096.7,383.1621" style="stroke: #000000; stroke-width: 0.55;"/><!--link api/news to _models_news--><path d="M1050.39,423.7988 C1062.64,419.6837 1077.51,414.6853 1091.81,409.8818 " fill="none" id="api/news-_models_news" style="stroke: #000000; stroke-width: 0.55;"/><polygon fill="#000000" points="1096.63,408.2618,1086.8259,407.324,1091.8883,409.8482,1089.3641,414.9107,1096.63,408.2618" style="stroke: #000000; stroke-width: 0.55;"/><!--link App to Home/index--><path d="M112.94,238.523 C135.241,241.847 175.413,247.836 207.683,252.646 " fill="none" id="App-Home/index" style="stroke: #000000; stroke-width: 0.55;"/><polygon fill="#000000" points="212.79,253.408,204.478,248.1249,207.8446,252.6709,203.2987,256.0375,212.79,253.408" style="stroke: #000000; stroke-width: 0.55;"/><!--link App to Login--><path d="M113.232,234.943 C128.315,233.068 149.697,227.937 162.014,214 C214.252,154.893 138.348,92.732 197.014,40 C243.328,-1.629 323.194,7.098 364.89,15.433 " fill="none" id="App-Login" style="stroke: #000000; stroke-width: 0.55;"/><polygon fill="#000000" points="370.025,16.496,362.022,10.7556,365.1287,15.483,360.4013,18.5897,370.025,16.496" style="stroke: #000000; stroke-width: 0.55;"/><!--link App to Menu--><path d="M112.246,240.043 C125.921,243.767 145.792,249.934 162.014,258 C178.903,266.397 180.252,273.353 197.014,282 C207.959,287.646 220.693,292.532 231.607,296.255 " fill="none" id="App-Menu" style="stroke: #000000; stroke-width: 0.55;"/><polygon fill="#000000" points="236.48,297.883,229.211,291.2376,231.7376,296.2989,226.6763,298.8255,236.48,297.883" style="stroke: #000000; stroke-width: 0.55;"/><!--link App to News--><path d="M113.184,237.413 C128.024,239.528 149.071,244.81 162.014,258 C198.542,295.223 161.044,332.239 197.014,370 C205.376,378.7777 217.53,384.0703 228.716,387.2537 " fill="none" id="App-News" style="stroke: #000000; stroke-width: 0.55;"/><polygon fill="#000000" points="233.771,388.5728,226.073,382.4294,228.9331,387.31,224.0525,390.17,233.771,388.5728" style="stroke: #000000; stroke-width: 0.55;"/><!--link App to _PageNotFound--><path d="M112.94,233.477 C133.699,230.382 169.943,224.98 200.885,220.367 " fill="none" id="App-_PageNotFound" style="stroke: #000000; stroke-width: 0.55;"/><polygon fill="#000000" points="206.197,219.575,196.7055,216.9459,201.2517,220.3123,197.8852,224.8584,206.197,219.575" style="stroke: #000000; stroke-width: 0.55;"/><!--link App to PrivateRoute--><path d="M112.405,232.261 C126.176,228.723 146.1,222.658 162.014,214 C179.513,204.48 179.659,195.779 197.014,186 C203.769,182.194 211.306,178.827 218.695,175.943 " fill="none" id="App-PrivateRoute" style="stroke: #000000; stroke-width: 0.55;"/><polygon fill="#000000" points="223.776,174.024,213.9432,173.4621,219.0985,175.7907,216.7699,180.9461,223.776,174.024" style="stroke: #000000; stroke-width: 0.55;"/><!--link App to Profile--><path d="M112.94,238.027 C127.421,240.537 148.075,246.053 162.014,258 C187.822,280.12 171.538,303.499 197.014,326 C205.304,333.322 216.236,338.277 226.495,341.599 " fill="none" id="App-Profile" style="stroke: #000000; stroke-width: 0.55;"/><polygon fill="#000000" points="231.463,343.102,224.0078,336.6662,226.6774,341.6535,221.6901,344.3231,231.463,343.102" style="stroke: #000000; stroke-width: 0.55;"/><!--link <b>App.test</b> to App--><path d="M55.3118,151.791 C38.1911,155.711 19.9562,163.527 10.5144,179 C4.4952,188.864 4.4952,195.136 10.5144,205 C23.1205,225.659 51.4008,232.667 71.7763,234.981 " fill="none" id="&lt;b&gt;App.test&lt;/b&gt;-App" style="stroke: #000000; stroke-width: 1.0;"/><polygon fill="#000000" points="76.7719,235.473,68.2078,230.6092,71.796,234.9824,67.4229,238.5706,76.7719,235.473" style="stroke: #000000; stroke-width: 1.0;"/><!--link auth to _user--><path d="M510.344,59.652 C528.681,56.393 556.729,51.406 577.355,47.74 " fill="none" id="auth-_user" style="stroke: #000000; stroke-width: 0.55;"/><polygon fill="#000000" points="582.428,46.838,572.8666,44.4761,577.5053,47.7137,574.2677,52.3524,582.428,46.838" style="stroke: #000000; stroke-width: 0.55;"/><!--link <b>Authenticated</b> to auth--><path d="M319.274,63.739 C366.629,63.533 430.16,63.258 464.669,63.108 " fill="none" id="&lt;b&gt;Authenticated&lt;/b&gt;-auth" style="stroke: #000000; stroke-width: 1.0;"/><polygon fill="#000000" points="469.951,63.085,460.9339,59.1236,464.951,63.1064,460.9682,67.1235,469.951,63.085" style="stroke: #000000; stroke-width: 1.0;"/><!--link Login to auth--><path d="M412.882,30.1 C428.843,36.953 451.701,46.766 468.295,53.89 " fill="none" id="Login-auth" style="stroke: #000000; stroke-width: 0.55;"/><polygon fill="#000000" points="473.23,56.009,466.5366,48.7841,468.6352,54.0373,463.382,56.1359,473.23,56.009" style="stroke: #000000; stroke-width: 0.55;"/><!--link Login to _user--><path d="M417.696,24.368 C457.094,28.308 535.848,36.183 577.218,40.32 " fill="none" id="Login-_user" style="stroke: #000000; stroke-width: 0.55;"/><polygon fill="#000000" points="582.316,40.83,573.7597,35.9526,577.3409,40.3315,572.962,43.9128,582.316,40.83" style="stroke: #000000; stroke-width: 0.55;"/><!--link Menu to auth--><path d="M281.817,301.589 C318.589,296.495 390.999,281.286 432.014,238 C474.399,193.269 485.555,116.728 488.48,81.607 " fill="none" id="Menu-auth" style="stroke: #000000; stroke-width: 0.55;"/><polygon fill="#000000" points="488.883,76.337,484.2081,85.0057,488.5016,81.3224,492.1848,85.6159,488.883,76.337" style="stroke: #000000; stroke-width: 0.55;"/><!--link News to _actions_news--><path d="M280.083,385.6836 C320.366,374.1828 411.272,351 489.514,351 C489.514,351 489.514,351 606.014,351 C689.024,351 785.34,349.3526 843.695,348.1722 " fill="none" id="News-_actions_news" style="stroke: #000000; stroke-width: 0.55;"/><polygon fill="#000000" points="848.873,348.0667,839.7937,344.2501,843.874,348.1681,839.956,352.2484,848.873,348.0667" style="stroke: #000000; stroke-width: 0.55;"/><!--link News to api/news--><path d="M280.083,398.3164 C320.366,409.8172 411.272,433 489.514,433 C489.514,433 489.514,433 756.014,433 C833.631,433 924.035,433 976.664,433 " fill="none" id="News-api/news" style="stroke: #000000; stroke-width: 0.55;"/><polygon fill="#000000" points="981.951,433,972.951,429,976.951,433,972.951,437,981.951,433" style="stroke: #000000; stroke-width: 0.55;"/><!--link News to NewsItem--><path d="M283.224,392 C360.436,392 601.846,392 705.71,392 " fill="none" id="News-NewsItem" style="stroke: #000000; stroke-width: 0.55;"/><polygon fill="#000000" points="710.851,392,701.851,388,705.851,392,701.851,396,710.851,392" style="stroke: #000000; stroke-width: 0.55;"/><!--link News to state--><path d="M280.802,386.3424 C292.637,382.709 307.218,377.2928 319.014,370 C337.199,358.7574 335.768,348.1424 354.014,337 C388.904,315.694 434.621,302.002 463.025,294.903 " fill="none" id="News-state" style="stroke: #000000; stroke-width: 0.55;"/><polygon fill="#000000" points="468.121,293.653,458.4277,291.9096,463.2646,294.8428,460.3314,299.6798,468.121,293.653" style="stroke: #000000; stroke-width: 0.55;"/><!--link NewsItem to _models_news--><path d="M799.13,392 C870.749,392 1014.03,392 1091.82,392 " fill="none" id="NewsItem-_models_news" style="stroke: #000000; stroke-width: 0.55;"/><polygon fill="#000000" points="1096.85,392,1087.85,388,1091.85,392,1087.85,396,1096.85,392" style="stroke: #000000; stroke-width: 0.55;"/><!--link _PageNotFound to _SVGHome--><path d="M309.675,212 C322.522,212 336.206,212 348.654,212 " fill="none" id="_PageNotFound-_SVGHome" style="stroke: #000000; stroke-width: 0.55;"/><polygon fill="#000000" points="353.907,212,344.907,208,348.907,212,344.907,216,353.907,212" style="stroke: #000000; stroke-width: 0.55;"/><!--link PrivateRoute to auth--><path d="M285.008,152.61 C331.149,132.392 426.47,90.625 468.651,72.142 " fill="none" id="PrivateRoute-auth" style="stroke: #000000; stroke-width: 0.55;"/><polygon fill="#000000" points="473.285,70.111,463.4363,70.0599,468.7055,72.1179,466.6474,77.3871,473.285,70.111" style="stroke: #000000; stroke-width: 0.55;"/><!--link reducers/news to _actions_news--><path d="M794.916,319.484 C810.06,323.566 827.657,328.308 843.932,332.694 " fill="none" id="reducers/news-_actions_news" style="stroke: #000000; stroke-width: 0.55;"/><polygon fill="#000000" points="848.936,334.043,841.2875,327.8381,844.1084,332.7414,839.205,335.5623,848.936,334.043" style="stroke: #000000; stroke-width: 0.55;"/><!--link rootReducers to reducers/news--><path d="M642.979,278.991 C663.429,284.518 688.964,291.419 710.388,297.209 " fill="none" id="rootReducers-reducers/news" style="stroke: #000000; stroke-width: 0.55;"/><polygon fill="#000000" points="715.457,298.579,707.8119,292.3699,710.6301,297.2748,705.7252,300.0929,715.457,298.579" style="stroke: #000000; stroke-width: 0.55;"/><!--link <b>src/index</b> to App--><path d="M95.0144,205.052 C95.0144,209.337 95.0144,213.622 95.0144,217.907 " fill="none" id="&lt;b&gt;src/index&lt;/b&gt;-App" style="stroke: #000000; stroke-width: 1.0;"/><polygon fill="#000000" points="95.0144,222.938,99.0144,213.938,95.0144,217.938,91.0144,213.938,95.0144,222.938" style="stroke: #000000; stroke-width: 1.0;"/><!--link <b>src/index</b> to serviceWorker--><path d="M50.8655,196.894 C35.1125,201.116 19.1423,208.861 10.5144,223 C4.4952,232.864 4.4952,239.136 10.5144,249 C17.223,259.994 28.3198,267.228 40.3001,271.982 " fill="none" id="&lt;b&gt;src/index&lt;/b&gt;-serviceWorker" style="stroke: #000000; stroke-width: 1.0;"/><polygon fill="#000000" points="45.1095,273.747,38.0387,266.8911,40.4156,272.0243,35.2824,274.4012,45.1095,273.747" style="stroke: #000000; stroke-width: 1.0;"/><!--link <b>src/index</b> to state--><path d="M129.872,183.238 C140.494,179.833 152.041,175.426 162.014,170 C179.513,160.48 178.217,148.594 197.014,142 C248.18,124.052 265.724,131.991 319.014,142 C371.983,151.949 391.371,150.605 432.014,186 C458.864,209.382 475.765,248.509 483.846,271.212 " fill="none" id="&lt;b&gt;src/index&lt;/b&gt;-state" style="stroke: #000000; stroke-width: 1.0;"/><polygon fill="#000000" points="485.529,276.067,486.3616,266.2534,483.8918,271.3426,478.8026,268.8729,485.529,276.067" style="stroke: #000000; stroke-width: 1.0;"/><!--link state to reducers/news--><path d="M513.895,290.705 C553.25,293.704 636.098,300.016 693.385,304.381 " fill="none" id="state-reducers/news" style="stroke: #000000; stroke-width: 0.55;"/><polygon fill="#000000" points="698.5,304.77,689.83,300.0976,693.5145,304.39,689.222,308.0745,698.5,304.77" style="stroke: #000000; stroke-width: 0.55;"/><!--link state to rootReducers--><path d="M513.206,285.144 C524.92,283.061 539.899,280.398 554.3,277.838 " fill="none" id="state-rootReducers" style="stroke: #000000; stroke-width: 0.55;"/><polygon fill="#000000" points="559.572,276.901,550.0106,274.5391,554.6493,277.7767,551.4117,282.4154,559.572,276.901" style="stroke: #000000; stroke-width: 0.55;"/><script type="text/plantuml"><![CDATA[
@startuml

scale max 1920 width
left to right direction

skinparam nodesep 18
skinparam ranksep 35
skinparam monochrome true
skinparam shadowing false
skinparam defaultFontName Tahoma
skinparam defaultFontSize 12
skinparam roundCorner 4
skinparam dpi 150
skinparam arrowColor black
skinparam arrowThickness 0.55
skinparam packageTitleAlignment left

skinparam usecase {
  borderThickness 0.5
}

skinparam rectangle {
  borderThickness 0.5
}

skinparam component {
  borderThickness 1
}


rectangle "actions/news" as _actions_news
(api/news)
(App)
(<b>App.test</b>)
(auth)
(<b>Authenticated</b>)
(Home/index)
(Login)
(Menu)
rectangle "models/news" as _models_news
(News)
(NewsItem)
rectangle "PageNotFound" as _PageNotFound
(PrivateRoute)
(Profile)
(<b>react-app-env.d</b>)
(reducers/news)
(rootReducers)
(serviceWorker)
(<b>src/index</b>)
(state)
rectangle "SVGHome" as _SVGHome
rectangle "user" as _user


_actions_news ---> _models_news
(api/news) --> _models_news
(App) --> (Home/index)
(App) --> (Login)
(App) --> (Menu)
(App) --> (News)
(App) --> _PageNotFound
(App) --> (PrivateRoute)
(App) --> (Profile)
(<b>App.test</b>) -[thickness=1]> (App)
(auth) --> _user
(<b>Authenticated</b>) ---[thickness=1]> (auth)
(Login) --> (auth)
(Login) --> _user
(Menu) ---> (auth)
(News) ---> _actions_news
(News) --> (api/news)
(News) ---> (NewsItem)
(News) ---> (state)
(NewsItem) ---> _models_news
_PageNotFound --> _SVGHome
(PrivateRoute) ---> (auth)
(reducers/news) --> _actions_news
(rootReducers) --> (reducers/news)
(<b>src/index</b>) -[thickness=1]> (App)
(<b>src/index</b>) -[thickness=1]> (serviceWorker)
(<b>src/index</b>) --[thickness=1]> (state)
(state) --> (reducers/news)
(state) --> (rootReducers)

@enduml


' View and edit on https://arkit.pro
]]></script></g></svg>