<?xml version="1.0" encoding="UTF-8" standalone="no"?><svg xmlns="http://www.w3.org/2000/svg" xmlns:xlink="http://www.w3.org/1999/xlink" contentScriptType="application/ecmascript" contentStyleType="text/css" height="74px" preserveAspectRatio="none" style="width:526px;height:74px;" version="1.1" viewBox="0 0 526 74" width="526px" zoomAndPan="magnify"><defs/><g><ellipse cx="351.8492" cy="48.242" fill="#F8F8F8" rx="17.8492" ry="13.242" style="stroke: #383838; stroke-width: 0.5;"/><text fill="#000000" font-family="Tahoma, sans-serif" font-size="12" lengthAdjust="spacingAndGlyphs" textLength="21" x="341.3492" y="51.9842">App</text><ellipse cx="47.1838" cy="48.242" fill="#F8F8F8" rx="41.1838" ry="13.242" style="stroke: #383838; stroke-width: 0.5;"/><text fill="#000000" font-family="Tahoma, sans-serif" font-size="12" font-weight="bold" lengthAdjust="spacingAndGlyphs" textLength="54" x="20.1838" y="51.9842">App.test</text><ellipse cx="448.7768" cy="47.7554" fill="#F8F8F8" rx="66.7768" ry="15.7554" style="stroke: #383838; stroke-width: 0.5;"/><text fill="#000000" font-family="Tahoma, sans-serif" font-size="12" font-weight="bold" lengthAdjust="spacingAndGlyphs" textLength="105" x="396.2768" y="51.4976">react-app-env.d</text><ellipse cx="263.8275" cy="47.8655" fill="#F8F8F8" rx="57.3275" ry="13.8655" style="stroke: #383838; stroke-width: 0.5;"/><text fill="#000000" font-family="Tahoma, sans-serif" font-size="12" lengthAdjust="spacingAndGlyphs" textLength="81" x="223.3275" y="51.6077">serviceWorker</text><ellipse cx="146.8406" cy="48.242" fill="#F8F8F8" rx="46.8406" ry="13.242" style="stroke: #383838; stroke-width: 0.5;"/><text fill="#000000" font-family="Tahoma, sans-serif" font-size="12" font-weight="bold" lengthAdjust="spacingAndGlyphs" textLength="62" x="115.8406" y="51.9842">src/index</text><!--link <b>App.test</b> to App--><path d="M64.2752,36.1128 C74.235,29.9875 87.273,23.1552 100,20 C147.884,8.1289 276.103,1.9092 322,20 C328.761,22.6648 334.896,27.6512 339.832,32.686 " fill="none" id="&lt;b&gt;App.test&lt;/b&gt;-App" style="stroke: #000000; stroke-width: 1.0;"/><polygon fill="#000000" points="343.363,36.5081,340.194,27.183,339.9702,32.8354,334.3177,32.6115,343.363,36.5081" style="stroke: #000000; stroke-width: 1.0;"/><!--link <b>src/index</b> to App--><path d="M166.764,36.0987 C178.104,29.9689 192.86,23.137 207,20 C256.898,8.9302 274.449,1.2573 322,20 C328.761,22.6648 334.896,27.6512 339.832,32.686 " fill="none" id="&lt;b&gt;src/index&lt;/b&gt;-App" style="stroke: #000000; stroke-width: 1.0;"/><polygon fill="#000000" points="343.363,36.5081,340.194,27.183,339.9702,32.8354,334.3177,32.6115,343.363,36.5081" style="stroke: #000000; stroke-width: 1.0;"/><!--link <b>src/index</b> to serviceWorker--><path d="M194.074,48 C196.379,48 198.684,48 200.988,48 " fill="none" id="&lt;b&gt;src/index&lt;/b&gt;-serviceWorker" style="stroke: #000000; stroke-width: 1.0;"/><polygon fill="#000000" points="206.366,48,197.366,44,201.366,48,197.366,52,206.366,48" style="stroke: #000000; stroke-width: 1.0;"/><script type="text/plantuml"><![CDATA[
@startuml

scale max 1920 width
top to bottom direction

skinparam monochrome true
skinparam shadowing false
skinparam nodesep 12
skinparam ranksep 24
skinparam defaultFontName Tahoma
skinparam defaultFontSize 12
skinparam roundCorner 4
skinparam dpi 150
skinparam arrowColor black
skinparam arrowThickness 0.55
skinparam packageTitleAlignment left

skinparam usecase {
  borderThickness 0.5
}

skinparam rectangle {
  borderThickness 0.5
}

skinparam component {
  borderThickness 1
}


(App)
(<b>App.test</b>)
(<b>react-app-env.d</b>)
(serviceWorker)
(<b>src/index</b>)


(<b>App.test</b>) -[thickness=1]> (App)
(<b>src/index</b>) -[thickness=1]> (App)
(<b>src/index</b>) -[thickness=1]> (serviceWorker)

@enduml


' View and edit on https://arkit.herokuapp.com
]]></script></g></svg>